<?xml version="1.0" encoding="UTF-8" standalone="no"?>
<!-- Created with Inkscape (http://www.inkscape.org/) -->

<svg
   xmlns:dc="http://purl.org/dc/elements/1.1/"
   xmlns:cc="http://creativecommons.org/ns#"
   xmlns:rdf="http://www.w3.org/1999/02/22-rdf-syntax-ns#"
   xmlns:svg="http://www.w3.org/2000/svg"
   xmlns="http://www.w3.org/2000/svg"
   xmlns:xlink="http://www.w3.org/1999/xlink"
   xmlns:sodipodi="http://sodipodi.sourceforge.net/DTD/sodipodi-0.dtd"
   xmlns:inkscape="http://www.inkscape.org/namespaces/inkscape"
   id="svg2"
   height="24"
   width="24"
   version="1.0"
   inkscape:version="0.48.4 r9939"
   sodipodi:docname="xfpm-battery-020-charging.svg">
  <sodipodi:namedview
     pagecolor="#ffffff"
     bordercolor="#666666"
     borderopacity="1"
     objecttolerance="10"
     gridtolerance="10"
     guidetolerance="10"
     inkscape:pageopacity="0"
     inkscape:pageshadow="2"
     inkscape:window-width="1366"
     inkscape:window-height="720"
     id="namedview26"
     showgrid="false"
     inkscape:zoom="23.291667"
     inkscape:cx="6.8050089"
     inkscape:cy="12"
     inkscape:window-x="0"
     inkscape:window-y="22"
     inkscape:window-maximized="1"
     inkscape:current-layer="svg2" />
  <defs
     id="defs4">
    <linearGradient
       id="linearGradient4081">
      <stop
         id="stop4083"
         style="stop-color:#aaa"
         offset="0" />
      <stop
         id="stop4085"
         style="stop-color:#f0f0f0"
         offset="1" />
    </linearGradient>
    <linearGradient
       id="linearGradient3763"
       y2="24.267"
       xlink:href="#linearGradient4081"
       gradientUnits="userSpaceOnUse"
       x2="39.195999"
       y1="72"
       x1="39" />
    <linearGradient
       id="linearGradient3636"
       y2="30.943001"
       xlink:href="#linearGradient4081"
       gradientUnits="userSpaceOnUse"
       x2="44"
       y1="66"
       x1="44" />
  </defs>
  <metadata
     id="metadata7">
    <rdf:RDF>
      <cc:Work
         rdf:about="">
        <dc:format>image/svg+xml</dc:format>
        <dc:type
           rdf:resource="http://purl.org/dc/dcmitype/StillImage" />
        <dc:title></dc:title>
      </cc:Work>
    </rdf:RDF>
  </metadata>
  <g
     id="layer1"
     transform="matrix(0.24427522,0,0,0.24427522,0.27479555,18.106832)">
    <rect
       id="rect3799"
       style="opacity:0.5;fill:#ffffff"
       height="40"
       width="16"
       y="-46"
       x="10" />
    <path
       id="path3672"
       style="opacity:0.07999998"
       d="m 47.688,-37.969 a 1.0164,1.0164 0 0 0 -0.125,0.03125 c -2.683,0.84535 -5.334,1.8865 -7.9375,2.7812 -6.9302,2.488 -13.887,4.9061 -20.812,7.4375 a 1.0164,1.0164 0 0 0 -0.063,0.031 c -2.411,1.086 -2.0802,4.8612 0.46875,5.5312 a 1.0164,1.0164 0 0 0 0.156,0.032 c 2.1747,0.2262 4.2656,0.06903 6.25,0.125 a 1.0164,1.0164 0 0 0 0.03125,0 h 11.344 c 0.0031,2.4377 -0.03387,4.9034 0.03125,7.375 a 1.0164,1.0164 0 0 0 0.03125,0.125 c 0.30211,2.0551 2.5916,2.9968 4.3438,2.1875 0.06014,-0.02778 0.12873,-0.03052 0.1875,-0.0625 9.8765,-3.3085 19.782,-6.5633 29.656,-9.9062 a 1.0164,1.0164 0 0 0 0.09375,-0.03125 c 2.4773,-1.1183 2.0001,-5.0666 -0.65625,-5.5938 a 1.0164,1.0164 0 0 0 -0.15625,0 c -3.444,-0.147 -6.883,-0.054 -10.25,-0.094 h -9.281 c -0.0031,-2.4272 0.03396,-4.8824 -0.03125,-7.3438 a 1.0164,1.0164 0 0 0 -0.031,-0.156 c -0.26463,-1.4697 -1.5709,-2.5837 -3.125,-2.4688 a 1.0164,1.0164 0 0 0 -0.125,0 z"
       inkscape:connector-curvature="0" />
    <path
       id="path3666"
       style="opacity:0.1"
       d="m 47.875,-36.969 c -2.6351,0.83024 -5.2624,1.865 -7.8963,2.7702 -6.9366,2.4903 -13.907,4.9209 -20.822,7.4486 -1.5496,0.69803 -1.3231,3.1951 0.3125,3.625 2.0465,0.21287 4.1317,0.0356 6.1936,0.09375 h 12.369 c 0.02114,2.7903 -0.0421,5.5911 0.03125,8.375 0.20421,1.3891 1.8656,2.0217 3.0413,1.3819 9.9423,-3.3313 19.903,-6.6135 29.834,-9.9756 1.5949,-0.71998 1.2708,-3.3172 -0.4375,-3.6562 -3.3902,-0.14442 -6.8047,-0.02189 -10.204,-0.0625 h -10.327 c -0.02124,-2.7799 0.04223,-5.5703 -0.03125,-8.3438 -0.17522,-0.97309 -1.0597,-1.7304 -2.0625,-1.6562 z"
       inkscape:connector-curvature="0" />
    <path
       id="path3662"
       style="opacity:0.15"
       d="m 47.875,-36.031 a 1.0405,1.0405 0 0 0 -0.21875,0.0625 l -28,10 a 1.0405,1.0405 0 0 0 0.34375,2 h 18.969 v 8.9688 a 1.0405,1.0405 0 0 0 1.375,1 l 30,-10 A 1.0405,1.0405 0 0 0 70,-26.0317 H 49.031 v -8.9688 a 1.0405,1.0405 0 0 0 -1.156,-1.031 z"
       inkscape:connector-curvature="0" />
    <path
       id="path3656"
       style="opacity:0.3"
       d="m 20,-25 28,-10 v 10 H 70 L 40,-15 V -25 H 20 z"
       inkscape:connector-curvature="0" />
    <path
       id="path3797"
       style="opacity:0.07999998"
       d="m 12,-52.031 c -4.9542,0 -9.0312,4.077 -9.0312,9.0312 v 36 c 0,4.9542 4.077,9.0312 9.0312,9.0312 h 66 c 4.9542,0 9.0312,-4.077 9.0312,-9.0312 v -6.9688 h 0.96875 c 2.7526,0 5.0312,-2.2787 5.0312,-5.0312 v -12 c 0,-2.7526 -2.2787,-5.0312 -5.0312,-5.0312 H 87.0312 v -6.9688 c 0,-4.9542 -4.077,-9.0312 -9.0312,-9.0312 H 12 z m 4,12.062 h 58 c 0.6901,0 0.96875,0.27864 0.96875,0.96875 v 28 c 0,0.69011 -0.27864,0.96875 -0.96875,0.96875 H 16 c -0.69011,0 -0.96875,-0.27864 -0.96875,-0.96875 v -28 c 0,-0.6901 0.27864,-0.96875 0.96875,-0.96875 z"
       inkscape:connector-curvature="0" />
    <path
       id="path3793"
       style="opacity:0.1"
       d="m 12,-50.969 c -4.3781,0 -7.9688,3.5907 -7.9688,7.9688 v 36 c 0,4.3781 3.5907,7.9688 7.9688,7.9688 h 66 c 4.3781,0 7.9688,-3.5907 7.9688,-7.9688 v -8.0312 H 88 c 2.1707,0 3.9688,-1.7981 3.9688,-3.9688 v -12 c 0,-2.1707 -1.7981,-3.9688 -3.9688,-3.9688 h -2.0312 v -8.0312 c 0,-4.3781 -3.5907,-7.9688 -7.9688,-7.9688 H 12 z m 4,9.9375 h 58 c 1.1884,0 2.0312,0.84288 2.0312,2.0312 v 28 c 0,1.1884 -0.84288,2.0312 -2.0312,2.0312 H 16 c -1.1884,0 -2.0312,-0.84288 -2.0312,-2.0312 v -28 c 0,-1.1884 0.84288,-2.0312 2.0312,-2.0312 z"
       inkscape:connector-curvature="0" />
    <path
       id="path3789"
       style="opacity:0.15"
       d="m 12,-50.031 c -3.8714,0 -7.0312,3.1598 -7.0312,7.0312 v 36 c 0,3.8714 3.1598,7.0312 7.0312,7.0312 h 66 c 3.8714,0 7.0312,-3.1598 7.0312,-7.0312 v -8.9688 H 88 c 1.6533,0 3.0312,-1.3779 3.0312,-3.0312 v -12 c 0,-1.6533 -1.3779,-3.0312 -3.0312,-3.0312 h -2.9688 v -8.9688 c 0,-3.8714 -3.1598,-7.0312 -7.0312,-7.0312 H 12 z m 4,8.0625 h 58 c 1.6707,0 2.9688,1.2981 2.9688,2.9688 v 28 c 0,1.6707 -1.2981,2.9688 -2.9688,2.9688 H 16 c -1.6707,0 -2.9688,-1.2981 -2.9688,-2.9688 v -28 c 0,-1.6707 1.2981,-2.9688 2.9688,-2.9688 z"
       inkscape:connector-curvature="0" />
    <path
       id="path3783"
       style="opacity:0.3"
       d="m 12,-49 c -3.3273,0 -6,2.6727 -6,6 v 36 c 0,3.3273 2.6727,6 6,6 h 66 c 3.3273,0 6,-2.6727 6,-6 v -10 h 4 c 1.108,0 2,-0.892 2,-2 v -12 c 0,-1.108 -0.892,-2 -2,-2 h -4 v -10 c 0,-3.3273 -2.6727,-6 -6,-6 H 12 z m 4,6 h 58 c 2.216,0 4,1.784 4,4 v 28 c 0,2.216 -1.784,4 -4,4 H 16 c -2.216,0 -4,-1.784 -4,-4 v -28 c 0,-2.216 1.784,-4 4,-4 z"
       inkscape:connector-curvature="0" />
    <path
       id="rect2975"
       style="fill:url(#linearGradient3763)"
       transform="translate(0,-74)"
       d="m 12,24 c -3.3273,0 -6,2.6727 -6,6 v 36 c 0,3.3273 2.6727,6 6,6 h 66 c 3.3273,0 6,-2.6727 6,-6 V 56 h 4 c 1.108,0 2,-0.892 2,-2 V 42 c 0,-1.108 -0.892,-2 -2,-2 H 84 V 30 c 0,-3.3273 -2.6727,-6 -6,-6 H 12 z m 4,6 h 58 c 2.216,0 4,1.784 4,4 v 28 c 0,2.216 -1.784,4 -4,4 H 16 c -2.216,0 -4,-1.784 -4,-4 V 34 c 0,-2.216 1.784,-4 4,-4 z"
       inkscape:connector-curvature="0" />
    <path
       id="path3765"
       style="opacity:0.75;fill:#ffffff"
       transform="translate(0,-74)"
       d="m 12,24 c -3.3273,0 -6,2.6727 -6,6 v 1 c 0,-3.3273 2.6727,-6 6,-6 h 66 c 3.3273,0 6,2.6727 6,6 v -1 c 0,-3.3273 -2.6727,-6 -6,-6 H 12 z m 72,16 v 1 h 4 c 1.108,0 2,0.892 2,2 v -1 c 0,-1.108 -0.892,-2 -2,-2 H 84 z M 12,62 v 1 c 0,2.216 1.784,4 4,4 h 58 c 2.216,0 4,-1.784 4,-4 v -1 c 0,2.216 -1.784,4 -4,4 H 16 c -2.216,0 -4,-1.784 -4,-4 z"
       inkscape:connector-curvature="0" />
    <path
       id="path3774"
       style="opacity:0.15"
       transform="translate(0,-74)"
       d="m 16,29 c -2.216,0 -4,1.784 -4,4 v 1 c 0,-2.216 1.784,-4 4,-4 h 58 c 2.216,0 4,1.784 4,4 v -1 c 0,-2.216 -1.784,-4 -4,-4 H 16 z m 74,24 c 0,1.108 -0.892,2 -2,2 h -4 v 1 h 4 c 1.108,0 2,-0.892 2,-2 V 53 z M 6,65 v 1 c 0,3.3273 2.6727,6 6,6 h 66 c 3.3273,0 6,-2.6727 6,-6 v -1 c 0,3.3273 -2.6727,6 -6,6 H 12 C 8.6727,71 6,68.327 6,65 z"
       inkscape:connector-curvature="0" />
    <path
       id="path2856"
       style="fill:url(#linearGradient3636)"
       transform="translate(0,-74)"
       d="M 20,48 48,38 V 48 H 70 L 40,58 V 48 H 20 z"
       inkscape:connector-curvature="0" />
    <path
       id="path3638"
       style="opacity:0.75;fill:#ffffff"
       transform="translate(0,-74)"
       d="M 48,38 20,48 h 2.812 L 48,39 v -1 z m 0,10 v 1 h 19 l 3,-1 H 48 z"
       inkscape:connector-curvature="0" />
    <path
       id="path3647"
       style="opacity:0.15"
       transform="translate(0,-74)"
       d="M 22.812,47 20,48 H 40 V 47 H 22.812 z M 67,48 40,57 v 1 L 70,48 h -3 z"
       inkscape:connector-curvature="0" />
  </g>
</svg>
